# xmcd
#
# Track frame offsets: 
#        150
#        17289
#        32553
#        47121
#        63018
#        80560
#        96504
#        118246
#        137245
#        153516
#        170384
#        193453
#        206189
#        221403
#        239443
#        258338
#        274572
#        295141
#        314058
#
# Disc length: 4503 seconds
#
# Revision: 0
# Processed by: cddbd v1.5.2PL0 Copyright (c) Steve Scherf et al.
# Submitted via: ExactAudioCopy v0.95b4
#
DISCID=1f119513
DTITLE=Fernando e Sorocaba - Ao vivo em Londrina
DYEAR=2007
DGENRE=Sertanejo Moderninho
TTITLE0=Bala de prata
TTITLE1=Ah como eu amo você
TTITLE2=Aqui a tristeza pula de alegria
TTITLE3=Juliana
TTITLE4=O amor
TTITLE5=Hoje tem festa na cidade (mulher do Paraná)
TTITLE6=Noite enluarada
TTITLE7=Volta lá pro seu lugar
TTITLE8=Vem ficar do meu lado
TTITLE9=Country roads-Dixiland Delight
TTITLE10=Mais que uma madrugada
TTITLE11=Segura peão
TTITLE12=Eu deixo ela mentir
TTITLE13=Luz da minha manhã
TTITLE14=Porto de paixão
TTITLE15=Deusa menina
TTITLE16=Não sei como viver
TTITLE17=Brilho no olhar
TTITLE18=Companheiro
EXTD=
EXTT0=
EXTT1=
EXTT2=
EXTT3=
EXTT4=
EXTT5=
EXTT6=
EXTT7=
EXTT8=
EXTT9=
EXTT10=
EXTT11=
EXTT12=
EXTT13=
EXTT14=
EXTT15=
EXTT16=
EXTT17=
EXTT18=
PLAYORDER=
